<svg width="40" height="31" viewBox="0 0 40 31" fill="none" xmlns="http://www.w3.org/2000/svg">
<rect width="40" height="31" fill="#4848B6"/>
<path d="M22.7059 18.4706L28 11.8529H27.1176M22.7059 18.4706V24.2059M22.7059 18.4706H21.8235M22.7059 24.2059H21.8235V18.4706M22.7059 24.2059H19.1765M21.8235 18.4706L27.1176 11.8529M19.1765 24.2059V18.4706M19.1765 24.2059H18.2941V18.4706M19.1765 18.4706H18.2941M19.1765 18.4706L13.8824 11.8529M18.2941 18.4706L13 11.8529H13.8824M13.8824 11.8529H27.1176M17.8529 9.64706V7.88235M17.8529 9.64706L16.3824 7.88235M17.8529 9.64706L18.7353 8.32353M21.8235 9.64706L24.6912 8.32353M21.8235 9.64706L23 7.88235M21.8235 9.64706H23.8088M25.7941 9.64706L24.6912 8.32353M25.7941 9.64706L23 7.88235M25.7941 9.64706H23.8088M17.8529 7H15.6471L16.3824 7.88235M17.8529 7V7.88235M17.8529 7H18.2941M17.8529 7.88235H16.3824M18.7353 8.32353L19.6176 7H18.2941M18.7353 8.32353L18.2941 7M24.6912 8.32353L24.1397 7.66176M23 7.88235L23.5882 7L24.1397 7.66176M23.8088 9.64706L24.1397 7.66176" stroke="white"/>
</svg>
